Ôª:39:1"
REM  ATE 2013
REM DISCID 12345678B
REM COMMENT"ExactAudioCopy v0.99pb4"
PERFORMER É–ø–ø–∞"
TITLE "–ê–ª—å–TRACK 1 AUDIO
    TITLE "–¢—Ä–µVE
  TRACK 1 AUDIO
    T1 07:25:42
  :00
  TRA7K 2 AUDIO
    TITLE "–¢—Ä–µ–∫ 02"
    INDEX 01 03:39:10
   ?REM DATE 7.08.2010  TRACK 3 AUDIO
    TITLE "ˇ—Ä–µ–∫ 03"
    REM DATE 2011/04/05    
    INDEX 01 07:25:42
  TRACK 4 AUDIO
    TITLE "–¢—Ä–µ–∫ 04"
    INDEX 01 12:04:72
